# xmcd CD database file
#
# Track frame offsets:
#	150
#	14209
#	29061
#	51567
#	67585
#	86828
#	114784
#	135303
#	154078
#	169930
#	181468
#	197290
#	208236
#	224995
#	236855
#
# Disc length: 4025 seconds
#
# Revision: 0
# Processed by: cddbd v1.5.2PL0 Copyright (c) Steve Scherf et al.
# Submitted via: CDex 1.51
#
DISCID=e20fb70f
DTITLE=Helge Schneider - I Brake Together
DYEAR=2007
DGENRE=Jazz
TTITLE0=Meine Supermaus
TTITLE1=Käsebrot
TTITLE2=I Brake Together
TTITLE3=Lady Suppenhuhn
TTITLE4=Die Trompeten von Mexiko
TTITLE5=Pinguine können nicht fliegen
TTITLE6=Texas
TTITLE7=Bitte geh nicht vorbei
TTITLE8=Der Telefonmann
TTITLE9=Mädchen wollen küssen
TTITLE10=Fly Me To The Moon
TTITLE11=Georgia On My Mind
TTITLE12=Jailhouse Rock
TTITLE13=Pianosolo
TTITLE14=Gespräch mit einem Radio-Interviewer
EXTD=YEAR: 2007
EXTT0=
EXTT1=
EXTT2=
EXTT3=
EXTT4=
EXTT5=
EXTT6=
EXTT7=
EXTT8=
EXTT9=
EXTT10=
EXTT11=
EXTT12=
EXTT13=
EXTT14=
PLAYORDER=
